<svg width="1200" height="760" viewBox="0 0 1200 760" fill="none" xmlns="http://www.w3.org/2000/svg">
  <rect width="1200" height="760" fill="#0c1018"/>
  <rect x="142" y="82" width="916" height="596" rx="18" fill="#141925" stroke="#2a3142" stroke-width="4"/>
  <rect x="236" y="142" width="488" height="488" fill="#f5f7fb"/>
  <g stroke="#111827" stroke-width="4">
    <path d="M290 142V630M344 142V630M398 142V630M452 142V630M506 142V630M560 142V630M614 142V630M668 142V630"/>
    <path d="M236 196H724M236 250H724M236 304H724M236 358H724M236 412H724M236 466H724M236 520H724M236 574H724"/>
  </g>
  <g stroke="#111827" stroke-width="10">
    <path d="M398 142V630M560 142V630"/>
    <path d="M236 304H724M236 466H724"/>
  </g>
  <g fill="#4057ff" font-family="Arial, sans-serif" font-size="48" font-weight="700">
    <text x="260" y="212">5</text><text x="420" y="266">7</text><text x="584" y="320">9</text>
    <text x="314" y="430">4</text><text x="476" y="484">2</text><text x="640" y="592">8</text>
  </g>
  <rect x="780" y="180" width="250" height="64" rx="12" fill="#222938"/>
  <rect x="812" y="206" width="148" height="14" rx="7" fill="#58d6a3"/>
  <rect x="780" y="286" width="250" height="64" rx="12" fill="#222938"/>
  <rect x="812" y="312" width="176" height="14" rx="7" fill="#b47bff"/>
  <rect x="780" y="392" width="250" height="64" rx="12" fill="#222938"/>
  <rect x="812" y="418" width="124" height="14" rx="7" fill="#ffcf5a"/>
  <path d="M812 554L880 604L1008 502" stroke="#58d6a3" stroke-width="18" stroke-linecap="round" stroke-linejoin="round"/>
</svg>
