<svg width="1200" height="760" viewBox="0 0 1200 760" fill="none" xmlns="http://www.w3.org/2000/svg">
  <rect width="1200" height="760" fill="#0e1118"/>
  <rect x="168" y="112" width="864" height="536" rx="18" fill="#171c26" stroke="#2c3446" stroke-width="4"/>
  <rect x="256" y="180" width="336" height="400" rx="20" fill="#111722" stroke="#475268" stroke-width="8"/>
  <rect x="316" y="242" width="216" height="56" rx="10" fill="#263147"/>
  <rect x="316" y="340" width="84" height="84" rx="12" fill="#4057ff"/>
  <rect x="448" y="340" width="84" height="84" rx="12" fill="#58d6a3"/>
  <rect x="316" y="470" width="84" height="48" rx="10" fill="#ffcf5a"/>
  <rect x="448" y="470" width="84" height="48" rx="10" fill="#b47bff"/>
  <g stroke="#6f7a92" stroke-width="10" stroke-linecap="round">
    <path d="M592 254H774"/>
    <path d="M592 382H774"/>
    <path d="M592 494H774"/>
  </g>
  <g fill="#202838" stroke="#516078" stroke-width="6">
    <circle cx="828" cy="254" r="34"/>
    <circle cx="828" cy="382" r="34"/>
    <circle cx="828" cy="494" r="34"/>
  </g>
  <path d="M812 382L824 394L848 362" stroke="#58d6a3" stroke-width="10" stroke-linecap="round" stroke-linejoin="round"/>
  <path d="M800 584H400" stroke="#475268" stroke-width="16" stroke-linecap="round"/>
</svg>
