<svg width="1200" height="760" viewBox="0 0 1200 760" fill="none" xmlns="http://www.w3.org/2000/svg">
  <rect width="1200" height="760" fill="#0d1018"/>
  <rect x="104" y="96" width="992" height="568" rx="18" fill="#171b25" stroke="#2a3344" stroke-width="4"/>
  <rect x="168" y="164" width="864" height="94" rx="14" fill="#222938"/>
  <rect x="206" y="200" width="260" height="22" rx="11" fill="#f5f7fb"/>
  <g fill="#222938">
    <rect x="168" y="314" width="248" height="252" rx="14"/>
    <rect x="476" y="314" width="248" height="252" rx="14"/>
    <rect x="784" y="314" width="248" height="252" rx="14"/>
  </g>
  <rect x="206" y="360" width="160" height="20" rx="10" fill="#4057ff"/>
  <rect x="206" y="424" width="120" height="54" rx="10" fill="#31405d"/>
  <rect x="206" y="502" width="172" height="20" rx="10" fill="#8791a8"/>
  <rect x="514" y="360" width="132" height="20" rx="10" fill="#58d6a3"/>
  <rect x="514" y="424" width="120" height="54" rx="10" fill="#31405d"/>
  <rect x="514" y="502" width="148" height="20" rx="10" fill="#8791a8"/>
  <rect x="822" y="360" width="150" height="20" rx="10" fill="#b47bff"/>
  <rect x="822" y="424" width="120" height="54" rx="10" fill="#31405d"/>
  <rect x="822" y="502" width="124" height="20" rx="10" fill="#8791a8"/>
  <path d="M416 440H476M724 440H784" stroke="#ffcf5a" stroke-width="12" stroke-linecap="round"/>
</svg>
